<svg width="44" height="44" viewBox="0 0 44 44" fill="none" xmlns="http://www.w3.org/2000/svg">
<path d="M14.3032 22.0068C14.3088 21.8132 14.3475 21.6361 14.4194 21.4756C14.4914 21.3151 14.6021 21.1602 14.7515 21.0107L23.0688 12.959C23.3068 12.721 23.6001 12.6021 23.9487 12.6021C24.1812 12.6021 24.3914 12.6574 24.5796 12.7681C24.7733 12.8787 24.9255 13.0282 25.0361 13.2163C25.1523 13.4045 25.2104 13.6147 25.2104 13.8472C25.2104 14.1903 25.0804 14.4919 24.8203 14.752L17.2998 21.9985L24.8203 29.2534C25.0804 29.519 25.2104 29.8206 25.2104 30.1582C25.2104 30.3962 25.1523 30.6092 25.0361 30.7974C24.9255 30.9855 24.7733 31.1349 24.5796 31.2456C24.3914 31.3618 24.1812 31.4199 23.9487 31.4199C23.6001 31.4199 23.3068 31.2982 23.0688 31.0547L14.7515 23.0029C14.5965 22.8535 14.4831 22.6986 14.4111 22.5381C14.3392 22.3721 14.3032 22.195 14.3032 22.0068Z" fill="#FB1360"/>
</svg>
